<svg aria-hidden="true" style="position:absolute;width:0;height:0;overflow:hidden" xmlns="http://www.w3.org/2000/svg"><defs>
<symbol id="icon-Vector-7" viewBox="0 0 32 32"><path fill="#fff" style="fill:var(--color1, #fff)" d="M16 2a14 14 0 1 0 0 28 14 14 0 0 0 0-28zm0 23a9 9 0 1 1 0-18 9 9 0 0 1 0 18z"/></symbol>
<symbol id="icon-Vector-5" viewBox="0 0 29 32"><path d="m28 14-1-1h-2l-1 1-2 2-2-1a8 8 0 0 0-3-15 8 8 0 0 0-7 12H7l-4 2-2 1a2 2 0 0 0 2 4l2-1 2-1h2l-6 6-2 1-1 2 1 1a2 2 0 0 0 3 0l1-1 2-2 1 1-2 2-1 2-1 1 1 1a2 2 0 0 0 2 0l4-4 2-1 5-6h5l4-2 1-2v-2zM2 18a1 1 0 0 1 0-2h1l1 1-2 1zm4-2-1 1-1-2 3-1-1 2zm18-8-1 3-5-2-1-2 2-5c3 1 5 3 5 6zM10 8a7 7 0 0 1 8-7l-2 6-2 2 2 2 2-1 4 2a7 7 0 0 1-12-4zm7 1-1 1-1-1 1-1 1 1zM3 26H2a1 1 0 0 1 0-1l1-1 1 1-1 1zm4 5H6a1 1 0 0 1 0-1l1-2 1 1-1 2zm4-4-3 2v-1l2-2v-1l-2-2H7l-2 1-1-1 3-2 5 4-1 2zm7-9a1 1 0 0 0 0 1l-6 6-5-5 4-4a1 1 0 0 0-1-1H8v-1h3a8 8 0 0 0 7 2h1l2 1 1 1v1l-4-1zm5 1v-2l1-1 1 1-2 2zm4-4-1 1-1-1 1-1h1v1z"/></symbol>
<symbol id="icon-Vector-4" viewBox="0 0 41 32"><path d="M2 32h33l2-2v-3l-2-2V8l3-4a2 2 0 1 0 0-1l-3 3V4c0-1-1-2-3-2H5L3 4v21H2l-2 2v3l2 2zM39 2a1 1 0 1 1 0 1 1 1 0 0 1 0-1zM4 4h29v3l-1 2V6l-1-1H6v19h25l1-1V10l1-1v16H4V4zm6 9a2 2 0 1 0 2 4l2 1h1l5-6 5 4h1l4-4v10H7V6h23v4l-4 4-6-3c0-1 0-1 0 0l-6 6-2-1v-1c0-1 0-2-2-2zm1 2a1 1 0 1 1-1 0 1 1 0 0 1 1 0zm4 11h7v1l-1 1h-5l-1-1v-1zM1 27l1-1h12v1l2 2h5c2 0 2-1 2-2v-1h12l1 1v3l-1 1H2l-1-1v-3z"/></symbol>
<symbol id="icon-Vector-3" viewBox="0 0 31 32"><path d="M31 15a15 15 0 1 0-20 15l1-1 4-12a2 2 0 1 0-1-3l-5-6a1 1 0 0 0-1 1l5 5v3l-3 11a14 14 0 1 1 10 0v-2a1 1 0 0 0-1 0l-4 3a1 1 0 0 0 0 1l5 2a1 1 0 0 0 1-1v-2c5-2 9-8 9-14zm-15 0a1 1 0 1 1 0 1 1 1 0 0 1 0-1zm2 15 2-2v2h-2z"/></symbol>
<symbol id="icon-Vector-2" viewBox="0 0 30 32"><path d="m30 22-9-8 1-5h1a2 2 0 1 0-2-1h-5L8 0H7L6 2l1 1a15 15 0 0 0 2 18v7H3c-2 0-3 1-3 2v1l1 1h24l1-1v-1c0-1-1-2-3-2h-6v-3a15 15 0 0 0 10-1h1v1-1l2-1v-1zM22 6a1 1 0 1 1 1 2 1 1 0 0 1-1-2zm-1 4v3l-2-1 2-2zm0-1-2 2-2-2h4zm2 20 2 1v1H1v-1l2-1h20zm-7-2v1h-6v-1h6zm-6-1v-4c0-2 1-3 3-3s3 1 3 3v4h-6zm7-2v-2c0-2-2-4-4-4l-3 2C6 16 5 9 7 4l19 19c-3 1-6 2-9 1zm11-1L7 2l1-1 8 8 13 13-1 1z"/></symbol>
</defs></svg>